<?xml version="1.0" encoding="UTF-8"?>
<svg width="202px" height="459px" viewBox="0 0 202 459" version="1.1" xmlns="http://www.w3.org/2000/svg" xmlns:xlink="http://www.w3.org/1999/xlink">
    <!-- Generator: Sketch 51 (57462) - http://www.bohemiancoding.com/sketch -->
    <title>humdinger mic copy 3</title>
    <desc>Created with Sketch.</desc>
    <defs></defs>
    <g id="Page-1" stroke="none" stroke-width="1" fill="none" fill-rule="evenodd">
        <g id="humdinger-mic-copy-3" fill="#FFFFFF">
            <g id="naked-mic" transform="translate(0.000000, 134.000000)" fill-rule="nonzero">
                <path d="M41.9655522,325 L40,325 L40,318 L40.1423541,318 C42.1419497,307.503007 64.961144,299.196756 93,299.003445 L93,274.687808 C40.9590771,270.609864 0,227.088185 0,174 C0,169.029437 4.02943725,165 9,165 C13.9705627,165 18,169.029437 18,174 C18,219.839634 55.1603658,257 101,257 C146.839634,257 184,219.839634 184,174 C184,169.029437 188.029437,165 193,165 C197.970563,165 202,169.029437 202,174 C202,227.088185 161.040923,270.609864 109,274.687808 L109,299.003445 C137.038856,299.196756 159.85805,307.503007 161.857646,318 L162,318 L162,325 L160.034448,325 L41.9655522,325 Z" id="Combined-Shape"></path>
                <path d="M161.343565,24.7946456 C164.347227,32.275816 166,40.4448951 166,49 L166,174 C166,209.898509 136.898509,239 101,239 C65.1014913,239 36,209.898509 36,174 L36,49 C36,29.7906128 44.3327711,12.5274485 57.5808544,0.627966061 C68.6744712,6.87513779 84.4810646,11.7891391 98.9365811,15.6419539 C117.720433,20.6583974 144.536704,27.143211 161.343565,24.7946456 Z M81.5,150 C80.1192881,150 79,151.119288 79,152.5 L79,161.5 C79,162.880712 80.1192881,164 81.5,164 C82.8807119,164 84,162.880712 84,161.5 L84,152.5 C84,151.119288 82.8807119,150 81.5,150 Z M93.5,150 C92.1192881,150 91,151.119288 91,152.5 L91,161.5 C91,162.880712 92.1192881,164 93.5,164 C94.8807119,164 96,162.880712 96,161.5 L96,152.5 C96,151.119288 94.8807119,150 93.5,150 Z" id="Combined-Shape"></path>
            </g>
            <path d="M48.7988832,105.331947 C53.5341586,94.1846147 78.5578965,95.8803511 83.3811805,95.9421796 C93.9169596,67.7446629 100.410901,39.6828299 105.602432,11.29181 C109.863345,-12.3196014 175.218088,11.1425577 183.28429,15.4958422 C200.198138,24.3999234 198.360201,27.7929382 191.666943,39.6026528 C178.280426,63.2220818 167.882169,89.5255789 158.399968,114.903344 C167.508096,119.519978 187.298896,126.065169 181.112038,141.860435 C174.398391,159.065576 130.895001,148.84151 103.936581,141.641954 C75.9362331,134.179048 42.8666822,122.7346 48.7988832,105.331947 Z M170.543599,30.9386183 L134.531555,114.900977 L142.29722,115.359706 L177.874996,31.8798587 L170.543599,30.9386183 Z" id="top-hat"></path>
        </g>
    </g>
</svg>